<?xml version="1.0" encoding="utf-8"?>
<!-- Generator: Adobe Illustrator 20.0.0, SVG Export Plug-In . SVG Version: 6.00 Build 0)  -->
<svg version="1.1" id="svg2811" xmlns="http://www.w3.org/2000/svg" xmlns:xlink="http://www.w3.org/1999/xlink" x="0px" y="0px"
	 viewBox="0 0 2541.3 903.4" style="enable-background:new 0 0 2541.3 903.4;" xml:space="preserve">
<style type="text/css">
	.st0{clip-path:url(#SVGID_2_);}
	.st1{enable-background:new    ;}
</style>
<title>Apple-type</title>
<g>
	<defs>
		<rect id="SVGID_1_" y="0" width="708.7" height="870.3"/>
	</defs>
	<clipPath id="SVGID_2_">
		<use xlink:href="#SVGID_1_"  style="overflow:visible;"/>
	</clipPath>
	<g class="st0">
		<path id="path188" d="M591.8,462.4c-1-110.1,90-163,94.1-165.6c-51.2-74.9-130.8-85.1-159.2-86.3c-67.7-6.9-132.2,39.9-166.6,39.9
			s-87.4-38.9-143.6-37.8c-73.9,1.1-142,42.9-180.1,109.1C-40.3,454.7,16.8,652,91.6,760.1c36.6,52.8,80.1,112.3,137.4,110.1
			c55.2-2.2,76-35.7,142.6-35.7s85.4,35.7,143.6,34.6c59.3-1.2,96.9-54,133.2-107c41.9-61.3,59.2-120.7,60.2-123.8
			C707.3,637.8,593,594,591.8,462.4"/>
	</g>
</g>
<path id="path190" d="M482.3,139c30.4-36.8,50.9-88,45.3-139c-43.8,1.8-96.8,29.2-128.2,66c-28.1,32.5-52.8,84.6-46.1,134.6
	C402,204.4,451.9,175.7,482.3,139"/>
<g class="st1">
	<path d="M975.7,570.7l-50.4,152.7h-64.8L1025.4,238h75.6l165.6,485.4h-67l-51.9-152.7H975.7z M1134.9,521.7L1087.4,382
		c-10.8-31.7-18-60.5-25.2-88.6h-1.4c-7.2,28.8-15.1,58.3-24.5,87.9l-47.5,140.4H1134.9z"/>
</g>
<g class="st1">
	<path d="M1315.7,488.6c0-44.6-1.4-80.7-2.9-113.8h56.9l2.9,59.8h1.4c25.9-42.5,67-67.7,123.9-67.7c84.3,0,147.6,71.3,147.6,177.2
		c0,125.3-76.3,187.2-158.4,187.2c-46.1,0-86.4-20.2-107.3-54.7h-1.4V866h-62.7V488.6z M1378.3,581.5c0,9.4,1.4,18,2.9,25.9
		c11.5,43.9,49.7,74.2,95.1,74.2c67,0,105.9-54.7,105.9-134.7c0-69.9-36.7-129.6-103.7-129.6c-43.2,0-83.5,31-95.8,78.5
		c-2.2,7.9-4.3,17.3-4.3,25.9V581.5z"/>
	<path d="M1711,488.6c0-44.6-1.4-80.7-2.9-113.8h56.9l2.9,59.8h1.4c25.9-42.5,67-67.7,123.9-67.7c84.3,0,147.6,71.3,147.6,177.2
		c0,125.3-76.3,187.2-158.4,187.2c-46.1,0-86.4-20.2-107.3-54.7h-1.4V866H1711V488.6z M1773.7,581.5c0,9.4,1.4,18,2.9,25.9
		c11.5,43.9,49.7,74.2,95.1,74.2c67,0,105.9-54.7,105.9-134.7c0-69.9-36.7-129.6-103.7-129.6c-43.2,0-83.5,31-95.8,78.5
		c-2.2,7.9-4.3,17.3-4.3,25.9V581.5z"/>
	<path d="M2106.4,212.1h63.4v511.3h-63.4V212.1z"/>
	<path d="M2297.2,560.6c1.4,85.7,56.2,121,119.5,121c45.4,0,72.7-7.9,96.5-18l10.8,45.4c-22.3,10.1-60.5,21.6-115.9,21.6
		c-107.3,0-171.4-70.6-171.4-175.7s61.9-188,163.5-188c113.8,0,144,100.1,144,164.2c0,13-1.4,23-2.2,29.5H2297.2z M2483,515.2
		c0.7-40.3-16.6-103-87.9-103c-64.1,0-92.2,59.1-97.2,103H2483z"/>
</g>
</svg>
