<?xml version="1.0" encoding="utf-8"?>
<!-- Generator: Adobe Illustrator 20.1.0, SVG Export Plug-In . SVG Version: 6.00 Build 0)  -->
<svg version="1.1" id="Слой_1" xmlns="http://www.w3.org/2000/svg" xmlns:xlink="http://www.w3.org/1999/xlink" x="0px" y="0px"
	 viewBox="0 0 279.3 52.4" style="enable-background:new 0 0 279.3 52.4;" xml:space="preserve">
<style type="text/css">
	.st0{clip-path:url(#SVGID_2_);fill:#261F16;}
</style>
<g>
	<g>
		<defs>
			<rect id="SVGID_1_" x="-2.7" y="0" width="288" height="54"/>
		</defs>
		<clipPath id="SVGID_2_">
			<use xlink:href="#SVGID_1_"  style="overflow:visible;"/>
		</clipPath>
		<path class="st0" d="M16.6,31.4c1.3,1.3,1.3,3.5,0,4.9l-1.1,1.1c-1.3,1.3-3.5,1.3-4.9,0l-7.8-7.8c-1.3-1.3-1.3-3.5,0-4.9l1.1-1.1
			c1.3-1.3,3.5-1.3,4.9,0L16.6,31.4z M15.9,16.6c-1.3-1.3-3.5-1.3-4.9,0l-1.1,1.1c-1.3,1.3-1.3,3.5,0,4.9l7.8,7.8
			c1.3,1.3,3.5,1.3,4.9,0l1.1-1.1c1.3-1.3,1.3-3.5,0-4.9L15.9,16.6z M36.5,23.5c-1.3-1.3-3.5-1.3-4.9,0l-1.1,1.1
			c-1.3,1.3-1.3,3.5,0,4.9l7.8,7.8c1.3,1.3,3.5,1.3,4.9,0l1.1-1.1c1.3-1.3,1.3-3.5,0-4.9L36.5,23.5z M43.5,16.5
			c-1.3-1.3-3.5-1.3-4.9,0l-1.1,1.1c-1.3,1.3-1.3,3.5,0,4.9l7.8,7.8c1.3,1.3,3.5,1.3,4.9,0l1.1-1.1c1.3-1.3,1.3-3.5,0-4.9L43.5,16.5
			z M30.6,8.8c1.3-1.3,1.3-3.5,0-4.9l-1.1-1.1c-1.3-1.3-3.5-1.3-4.9,0l-7.8,7.8c-1.3,1.3-1.3,3.5,0,4.9l1.1,1.1
			c1.3,1.3,3.5,1.3,4.9,0L30.6,8.8z M37.6,15.8c1.3-1.3,1.3-3.5,0-4.9l-1.1-1.1c-1.3-1.3-3.5-1.3-4.9,0l-7.8,7.8
			c-1.3,1.3-1.3,3.5,0,4.9l1.1,1.1c1.3,1.3,3.5,1.3,4.9,0L37.6,15.8z M30.6,36.1c1.3-1.3,1.3-3.5,0-4.9l-1.1-1.1
			c-1.3-1.3-3.5-1.3-4.9,0l-7.8,7.8c-1.3,1.3-1.3,3.5,0,4.9l1.1,1.1c1.3,1.3,3.5,1.3,4.9,0L30.6,36.1z M37.6,43
			c1.3-1.3,1.3-3.5,0-4.9L36.5,37c-1.3-1.3-3.5-1.3-4.9,0l-7.8,7.8c-1.3,1.3-1.3,3.5,0,4.9l1.1,1.1c1.3,1.3,3.5,1.3,4.9,0L37.6,43z
			 M94.1,36.2c0.2,0.3,1.3,1.9,1.3,1.9c-0.6,2.5-2.1,5.6-2.1,5.6l-0.2,0.1c-5.8,2.3-14.7,4.2-24.2,0.3c-5.7-2.3-9.8-6.8-11.4-12.6
			c-1.7-6-0.5-12.6,3.2-17.7c4.1-5.6,10.7-8.6,19.7-9.1c3.4-0.2,10.4,0.7,14.2,2.9l0.3,0.2c0,0,0.1,9.4,0,9.8l-0.1,0.5L92,18.2
			l-0.1-0.9c-0.5-2.7-1.7-10.1-12-9.5C75.5,8,72,10.2,69.4,13.7c-3.2,4.2-4.2,10.1-2.8,16.5c1.4,6.2,6.1,10.2,9.8,11.6
			c1.5,0.6,6.4,1.7,10,0C89.6,40.4,92.6,38,94.1,36.2 M128.8,46.2V13.6c0-1,0-2.8-1.1-4c-0.2-0.2-1.6-1.3-1.6-1.3V6.9l8.8-1.8
			l0.8,0.5c0,0,0,34.5,0,34.9c0.1,3.3,2.4,3.6,2.4,3.6v2.1C138.1,46.2,128.8,46.2,128.8,46.2z M167.7,44c-1.6-0.4-2.4-1.7-2.4-3.9
			V19.4l-0.8-0.5l-8.8,1.8v1.4c0,0,1.5,1.2,1.7,1.3c1.1,1.2,1.1,2.9,1.1,4v12.3c-2.9,2.2-5.5,3-7.3,2.1c-1.5-0.7-2.3-2.4-2.3-4.8
			V19.4l-0.8-0.5l-8.8,1.8v1.4c0,0,1.5,1.2,1.7,1.3c1.1,1.2,1.1,3,1.1,4v10.5c0.1,2,0.2,2.7,0.4,3.6c0.5,2.3,1.9,3.8,3.8,4.6
			c3.1,1.2,7.5,0,12.2-3.1v3h9.6v-1.8L167.7,44z M211.3,44c-1.5-0.4-2.3-1.7-2.4-3.9V27.4c0-2.9-1.5-8.4-7.2-8.4
			c-4.3,0-7.1,2.5-8.5,3.9c-0.9-1.9-2.7-3.9-6.2-3.9c-2.7,0-5.2,1-7.6,3v-2.6l-0.8-0.5l-8.8,1.8v1.4c0,0,1.5,1.2,1.7,1.3
			c1.1,1.2,1.1,2.9,1.1,4v18.5h9.6v-1.8l-0.5-0.1c-1.5-0.4-2.3-1.6-2.3-3.9c0,0,0-12.7,0-14.8c1.7-1.4,3.4-1.7,5.2-1.6
			c1.5,0.1,2.9,1.1,3,6.4v15.8h9.6v-1.8l-0.5-0.1c-1.5-0.4-2.3-1.6-2.3-3.9V27.5c0-0.3-0.1-1.4-0.2-2.1c1.7-1.5,3.4-1.8,5.2-1.6
			c1.5,0.1,2.9,1.1,3,6.4V46h9.5v-1.8L211.3,44z M125.7,32.6c0-4.1-1.3-7.5-3.8-10c-2.6-2.6-6.3-3.9-10.7-3.9
			c-8.3,0-14.5,6-14.5,13.9c0,8.5,5.7,13.9,14.5,13.9c4.2,0,7.9-1.4,10.5-4C124.3,40,125.7,36.4,125.7,32.6 M111.2,43.6
			c-5.4,0-6.9-4.2-6.9-11c0-5,1.5-11,6.9-11s6.9,6,6.9,11C118.1,39.4,116.6,43.6,111.2,43.6 M243.7,10.6c0-2,1.6-3.5,3.6-3.5
			s3.6,1.6,3.6,3.5c0,2-1.6,3.6-3.6,3.6C245.3,14.1,243.7,12.5,243.7,10.6 M244.2,46V27.4c0-1.1,0-2.7-1.1-3.9
			c-0.2-0.2-1.7-1.3-1.7-1.3v-1.4l8.8-1.8l0.8,0.5c0,0,0,20.8,0,20.7c0.1,2.3,0.8,3.5,2.3,3.9l0.5,0.1V46H244.2z M239.2,25.4
			c-1.9-3.3-4.3-5.4-7.3-6.1c-4.1-1-8.3,0.8-10.8,2.3v-16l-0.8-0.5l-8.8,1.8v1.4c0,0,1.5,1.2,1.7,1.3c1.1,1.1,1.1,2.8,1.1,3.9v30.1
			V44l0.3,0.2c5,2.6,11.6,3,16.4,1c5.4-2.2,7.7-6.1,8.7-8.9C241.2,32.1,240.5,27.8,239.2,25.4 M231.8,39.9c-1.5,2.6-4.6,4.1-7.1,3.4
			c-2.4-0.7-3.8-3.3-3.7-7.3c0,0,0-9.2,0-11.2c0.1,0,0.2-0.1,0.3-0.1c1.5-0.8,4.2-2.2,7.9-0.3c2,1,3.5,2.9,4.2,5.3
			C234.3,32.9,233.8,36.6,231.8,39.9 M277.5,43.1L277,43c-0.4-0.1-1.1-1-1.1-2.7V28c0-3.5-1.1-6.3-3.2-7.8c-1.9-1.4-4.5-1.6-7.5-0.6
			c-3.6,1.2-9,5.9-9.9,7l-0.2,0.2l0.1,0.3c0.1,0.3,0.5,0.9,0.8,1.2l0.2,0.1h6c0,0,0-1.4,0-1.7c0-2.4,1.6-3.6,3-3.9s2.3-0.1,2.9,0.4
			c0.9,0.8,1.4,2.5,1.4,5.1v1.6l-12.6,5.6l-0.2,0.1l-0.1,0.3c-1.2,3.5-0.9,6.2,0.7,8c2.6,2.9,9,3.3,18.2,1.2
			c0.7-0.2,2.2-0.3,2.2-0.3C277.5,44.8,277.5,43.1,277.5,43.1 M269.3,33v9.5c-2.1,1.5-4.2,1.6-5.6,0.4c-1.6-1.3-2-3.8-0.9-6.2
			L269.3,33z"/>
	</g>
</g>
</svg>
