<?xml version="1.0" encoding="utf-8"?>
<!-- Generator: Adobe Illustrator 20.1.0, SVG Export Plug-In . SVG Version: 6.00 Build 0)  -->
<svg version="1.1" id="Слой_1" xmlns="http://www.w3.org/2000/svg" xmlns:xlink="http://www.w3.org/1999/xlink" x="0px" y="0px"
	 viewBox="0 0 221.6 37.7" style="enable-background:new 0 0 221.6 37.7;" xml:space="preserve">
<style type="text/css">
	.st0{fill:#292115;}
</style>
<g>
	<path class="st0" d="M20.6,15.3c0.2,0.5,0.7,1.6,0.8,1.9c0.1,0.2,0.1,0.6-0.1,0.8c-0.3,0.5-5.6,9.4-5.6,9.4s10.4-6.2,12-7.2
		c1.4-0.8,1.7-2.6,0.8-3.8c-0.6-0.9-9.6-14.6-10-15.2c-0.3-0.5,0-1.3,0.7-1.3c0.4,0,0.9,0,2.1,0c0.6,0,1.3,0.1,2.1,0.7
		c5.6,4.5,17.6,14.4,21,17.1c1,0.8,1.3,2.2,0.5,3.5c-0.7,1.2-2,2.3-4.5,3.3c-2.7,1-28.8,10.7-33.1,12.4c-1.1,0.4-2.4,0.7-4,0.7
		c-1.7,0-2.5,0-2.8,0c-0.7,0-1-0.8-0.6-1.2c1.1-1.3,18.7-20.5,19.4-21.3C19.9,14.8,20.5,14.9,20.6,15.3z"/>
	<path class="st0" d="M124.8,19.6c-0.4-0.4-1-0.6-1.8-0.6h-14.7l1.6-3.1h17.7c1.4,0,2.8-0.7,3.3-1.7l0.7-1.4c0.3-0.5,0.2-1-0.1-1.4
		c-0.4-0.4-1-0.6-1.8-0.6h-24.1c-1.4,0-2.8,0.7-3.3,1.7l-9.1,17.8c-0.3,0.5-0.2,1.1,0.1,1.4c0.4,0.4,1,0.6,1.8,0.6h24
		c1.4,0,2.8-0.7,3.3-1.7l0.7-1.4c0.3-0.5,0.2-1-0.1-1.4c-0.3-0.4-1-0.6-1.7-0.6h-17.1l1.6-3.2H121c1.3,0,2.8-0.7,3.3-1.7l0.7-1.3
		C125.2,20.6,125.2,20,124.8,19.6"/>
	<path class="st0" d="M221.5,11.5c0.2,0.5-0.2,1.1-1,1.6l-14.2,8.5l5.7,8.7c0.3,0.5,0.3,0.9-0.1,1.3c-0.4,0.5-1.1,0.7-2,0.7
		l-4.3,0.2c-1.7,0-2.9-0.5-3.6-1.6l-3.2-4.9l-8.1,4.8c-1,0.6-2.7,1.5-4.8,1.5h-5c-1.1,0-1.4-0.5-1.5-0.7c-0.2-0.5,0.1-1.2,1-1.7
		l15-9l-5.3-8.1c-0.3-0.5-0.3-0.9,0.1-1.3c0.4-0.5,1.1-0.8,2-0.8h4.5c1.7,0,2.8,0.6,3.5,1.7l2.7,4.1l7.7-4.6c1-0.6,2.9-1.1,5-1.1
		h4.4C221.1,10.8,221.4,11.2,221.5,11.5"/>
	<path class="st0" d="M185.9,11.4c0.4,0.4,0.4,0.9,0.1,1.4l-9.2,17.8c-0.5,1-2,1.7-3.4,1.7h-3.9c-0.8,0-1.4-0.2-1.8-0.7
		c-0.4-0.4-0.4-0.9-0.1-1.4l9.1-17.9c0.5-0.9,1.9-1.7,3.3-1.7h4C184.9,10.8,185.5,11,185.9,11.4"/>
	<path class="st0" d="M172.7,11.4c0.4,0.4,0.4,0.9,0.1,1.5l-9.1,17.8c-0.5,1-1.9,1.7-3.3,1.7h-3.8c-0.8,0-1.4-0.2-1.8-0.6
		c-0.4-0.4-0.4-0.9-0.1-1.5l5.6-11.1l-11.9,11.7c-0.9,0.8-2.5,1.5-3.8,1.5h-1.5c-1.4,0-2.6-0.8-2.6-1.8l-0.1-11.4l-5.8,11.4
		c-0.5,1-1.9,1.7-3.3,1.7h-3.8c-0.8,0-1.4-0.2-1.8-0.6c-0.4-0.4-0.4-0.9-0.1-1.5l9.1-17.7c0.5-1,1.9-1.7,3.3-1.7h6.9
		c0.7,0,1.4,0.2,1.9,0.6c0.4,0.4,0.7,0.8,0.7,1.3l0,10.7l11.2-11c0.9-0.9,2.5-1.6,3.8-1.6h8.5C171.7,10.8,172.3,11,172.7,11.4"/>
	<path class="st0" d="M95,13.9c1.6,1.8,1.6,4.4-0.2,7.8C91,29.1,83.8,32.4,71.5,32.4H58.3c-0.8,0-1.4-0.2-1.8-0.7
		c-0.3-0.4-0.4-0.9-0.1-1.4l6.5-12.6h9.4l-4.7,9.2h6.1c7.8,0,10.1-1.6,12.1-5.5c1.1-2.2,1.3-3.5,0.6-4.2c-0.8-0.9-2.8-1.3-6.4-1.3
		h-2.4c0,0-12.2,0-12.6,0c-0.8,0-1.9,0-2.5-0.1c-0.6-0.1-0.8-0.4-0.7-0.7c0.3-1,1.3-2.7,2.6-3.6c0.5-0.4,1.2-0.6,2.9-0.6
		c0.6,0,1.2,0,1.9,0h13.2C88.8,10.8,93.1,11.8,95,13.9"/>
</g>
</svg>
