<?xml version="1.0" encoding="utf-8"?>
<!-- Generator: Adobe Illustrator 20.1.0, SVG Export Plug-In . SVG Version: 6.00 Build 0)  -->
<svg version="1.1" id="Слой_1" xmlns="http://www.w3.org/2000/svg" xmlns:xlink="http://www.w3.org/1999/xlink" x="0px" y="0px"
	 viewBox="0 0 180.3 43" style="enable-background:new 0 0 180.3 43;" xml:space="preserve">
<style type="text/css">
	.st0{fill:#292115;}
</style>
<g>
	<path class="st0" d="M21.8,0C9.8,0,0,9.8,0,21.8c0,8,4.3,15,10.7,18.8c-4.3-3.3-7.1-8.5-7.1-14.3c0-10,8.1-18.1,18.1-18.1
		s18.1,8.1,18.1,18.1c0,5.9-2.8,11.1-7.2,14.4c6.5-3.8,10.9-10.8,10.9-18.9C43.5,9.7,33.8,0,21.8,0"/>
	<path class="st0" d="M21.7,15c-7.9,0-14.3,6.4-14.3,14.3c0,6.5,4.3,11.9,10.2,13.7c-4-1.6-6.8-5.5-6.8-10.1c0-6,4.9-10.9,10.9-10.9
		s10.9,4.9,10.9,10.9c0,4.5-2.8,8.4-6.7,10.1C31.8,41.2,36,35.8,36,29.3C36,21.4,29.6,15,21.7,15"/>
	<path class="st0" d="M55.9,13.5c-3.8,0-6.6,0.8-6.6,5.2v3.7c0,4.4,2.7,5.2,6.6,5.2s6.6-0.8,6.6-5.2v-3.7
		C62.5,14.3,59.8,13.5,55.9,13.5z M58.6,22.1c0,2.1-0.7,2.3-2.7,2.3s-2.7-0.2-2.7-2.3v-2.9c0-2.1,0.7-2.3,2.7-2.3s2.7,0.2,2.7,2.3
		V22.1z M72.4,22.3c0,1.7-0.6,1.8-2.2,1.8s-2.5,0-2.5-1.6v-8.6h-3.8v8.6c0,3.4,0.6,4.9,6.3,4.9c4.2,0,6-1.1,6-4.9v-8.6h-3.8V22.3z
		 M95.2,24h-0.1L92,13.9H77.6v3.3h3.7v10.1h3.8V17.2h4.1l2.3,7.4c0.4,1.5,1.4,2.6,2.9,2.6h3.8l4.1-13.4h-3.9L95.2,24z M103.2,16.3
		v8.6c0,1.3,1.1,2.4,2.5,2.4h7.9v-3.1H107v-2.3h5v-2.6h-5v-2.2h6.6V14h-7.9C104.3,13.9,103.2,14.9,103.2,16.3z M125.9,24h-0.1
		l-3.1-7.4c-0.6-1.5-1.4-2.7-3-2.7h-4.4v13.4h3.8l-0.2-10.1h0.2l3.1,7.4c0.6,1.5,1.4,2.7,3,2.7h4.5V13.9h-3.8V24z M130.6,17.2h3.7
		v10.1h3.8V17.2h3.8v-3.3h-11.3V17.2z M151.6,22.3c0,1.7-0.6,1.8-2.2,1.8s-2.5,0-2.5-1.6v-8.6h-3.8v8.6c0,3.4,0.6,4.9,6.3,4.9
		c4.2,0,6-1.1,6-4.9v-8.6h-3.8V22.3z M168.6,17.8c0-3.3-1.7-3.9-4.5-3.9h-7.2v13.4h3.8v-4.9h2.5c1.2,0,1.6,0.3,1.6,1.4v3.6h3.8v-4
		c0-1.6-0.9-2.5-2.4-2.6v-0.1C168.1,20.6,168.6,19.9,168.6,17.8z M163.1,20h-2.5v-3h2.9c1.1,0,1.2,0.3,1.2,1.6
		C164.8,19.9,164.5,20,163.1,20z M180.3,17v-3.1h-7.9c-1.4,0-2.5,1-2.5,2.4v8.6c0,1.3,1.1,2.4,2.5,2.4h7.9v-3.1h-6.6v-2.3h5v-2.6h-5
		v-2.2h6.6V17z"/>
</g>
</svg>
