<?xml version="1.0" encoding="utf-8"?>
<!-- Generator: Adobe Illustrator 20.1.0, SVG Export Plug-In . SVG Version: 6.00 Build 0)  -->
<svg version="1.1" id="Слой_1" xmlns="http://www.w3.org/2000/svg" xmlns:xlink="http://www.w3.org/1999/xlink" x="0px" y="0px"
	 viewBox="0 0 380.1 33.6" style="enable-background:new 0 0 380.1 33.6;" xml:space="preserve">
<style type="text/css">
	.st0{fill:#292115;}
</style>
<g>
	<g>
		<g>
			<path class="st0" d="M48.7,17.2c2.2-4.9-0.8-6.8-8-6.8l-12,0c-2.6,0-3.2-0.2-2.6-1.5l0.9-1.9c0.5-1.2,1.3-1.5,3.9-1.5l15.8,0
				c3.3,0,4.6,0.4,6.4,1.1l1.6-6.6l-31.4,0c-6,0-10.7,2.7-13,8l-3.4,7.5c-2.6,5.6-0.7,7.2,6,7.2l13.8,0c2.6,0,3.1,0.3,2.5,1.5
				L28,26.6c-0.5,1.2-1.2,1.5-3.9,1.5H7.8c-3.4,0-4.7-0.6-6.1-1.3L0,33.6l30.6,0c8.1,0,11.9-3,14.4-8.2L48.7,17.2z"/>
			<path class="st0" d="M130.8,19c3.9,0,5.6,0.5,7.3,0.9l3.4-7.3c-2,0.4-4.2,0.9-8.1,0.9h-12.1l3.6-7.8l13.8,0c4,0,5.7,0.5,7.3,0.9
				l1.6-6.4l-38.5,0c0.3,1.3,0.2,2.6-1.2,5.7l-10,22c-0.9,2-1.7,3.2-2.5,4.2c-1-1.8-1.8-3.8-2.3-5.3L87.5,9.9l11.2-6.6
				c3.2-1.9,5-2.5,7.4-3.3l-15.5,0c-0.1,0.4-0.2,0.8-0.4,1.3c-0.5,1.1-1.3,1.9-4,3.6L69.9,15.1l4.2-9.3c1.5-3.2,2.6-4.4,4-5.7
				l-19.8,0c0.3,1.3,0.2,2.6-1.2,5.7l-10,22c-1.4,3.2-2.6,4.4-4,5.8l19.7,0c-0.2-1.4-0.2-2.6,1.2-5.8l2.3-5l5.6-3.4l3.4,14.2l57.4,0
				l4.5-6.5c-1.9,0.4-4.1,0.9-8,0.9h-14.8l4.1-9L130.8,19z"/>
			<path class="st0" d="M181.6,25.4c0,0-5.4,1.3-12.1,1.3c0,0-6.6,0-7.9,0c-1.7,0-2.2-0.5-1.6-2.1c0.6-1.6,7.2-15.7,7.2-15.7
				c0.2-0.5,1-1.9,3.2-1.9l12.5,0c3.1,0,5.9,1,5.9,1l2-7.7l-0.1,0l0.1-0.2l-26.7,0c-7.3,0-12.5,2.6-15.8,9.8l-6.3,13.8
				c-3.3,7.2-0.5,9.8,6.8,9.8l27.4,0L181.6,25.4z"/>
			<path class="st0" d="M230,27.8l10.1-22c1.4-3.2,2.6-4.4,4-5.7l-19.7,0c0.2,1.3,0.2,2.6-1.2,5.7l-3.5,7.7H207l3.5-7.7
				c1.5-3.2,2.6-4.4,4-5.7l-19.7,0c0.2,1.3,0.2,2.5-1.3,5.7l-10,22c-1.5,3.2-2.6,4.4-4.1,5.8l19.7,0c-0.2-1.3-0.2-2.6,1.3-5.8l4-8.8
				l12.6,0l-4,8.8c-1.5,3.2-2.6,4.4-4,5.8l19.7,0C228.5,32.2,228.6,30.9,230,27.8z"/>
			<path class="st0" d="M265.6,28l-14.7,0l4.1-9l12.1,0c3.9,0,5.6,0.5,7.2,0.9l3.4-7.3c-2,0.4-4.2,0.9-8,0.9l-12.1,0l3.6-7.8l13.8,0
				c4,0,5.7,0.5,7.3,0.9l1.5-6.4l-38.5,0c0.2,1.3,0.2,2.6-1.3,5.7l-10,22c-1.5,3.2-2.6,4.4-4,5.8l39.2,0l4.5-6.5
				C271.8,27.5,269.6,28,265.6,28z"/>
			<path class="st0" d="M320.4,18.9c3.7-0.2,7-0.5,9.3-5.4l2.8-6.2c2.6-5.6-0.4-7.4-8.1-7.4l-36.5,0c0.7,1.3,0.6,2.6-0.8,5.7l-10,22
				c-1.5,3.2-2.6,4.4-4,5.8l19.7,0c-0.2-1.3-0.2-2.6,1.2-5.8l4-8.8l5.2,0l1.4,14.6l19,0c-0.9-1.3-0.9-3-1.3-5.1L320.4,18.9z
				 M315.5,7.4l-1.8,4.1c-0.7,1.6-1.5,1.9-3.7,1.9l-9.6,0l3.6-7.8l9.5,0C315.8,5.6,316.3,5.8,315.5,7.4z"/>
			<path class="st0" d="M351.9,7c0.6-1.2,1.3-1.5,4-1.5l15.8,0c3.3,0,4.6,0.4,6.4,1.1l2.2-6.7l-32.1,0c-6,0-10.6,2.7-13,8l-3.4,7.5
				c-2.6,5.6-0.7,7.3,6,7.3l13.8,0c2.6,0,3.1,0.3,2.5,1.5l-1.1,2.3c-0.5,1.2-1.2,1.5-3.9,1.5l-16.4,0c-3.3,0-4.7-0.6-6.1-1.3
				l-1.6,6.8l30.6,0c8.2,0,12-3,14.4-8.2l3.7-8.2c2.2-4.9-0.8-6.8-8-6.8h-12c-2.7,0-3.2-0.2-2.6-1.5L351.9,7z"/>
		</g>
		<path class="st0" d="M370.6,28.5c1.4,0,2.5,1.1,2.5,2.5c0,1.4-1.1,2.5-2.5,2.5c-1.4,0-2.5-1.1-2.5-2.5
			C368.1,29.6,369.2,28.5,370.6,28.5L370.6,28.5z M370.6,29c-1,0-1.9,0.9-1.9,2c0,1.1,0.8,2,1.9,2c1.1,0,1.9-0.9,1.9-2
			C372.5,29.9,371.7,29,370.6,29L370.6,29z M370.2,32.5h-0.6v-2.8c0.2,0,0.5-0.1,0.9-0.1c0.5,0,0.8,0.1,1,0.2
			c0.2,0.1,0.2,0.3,0.2,0.6c0,0.3-0.2,0.6-0.5,0.6v0c0.2,0,0.4,0.3,0.4,0.7c0.1,0.4,0.1,0.6,0.2,0.7h-0.6c-0.1-0.1-0.1-0.3-0.2-0.7
			c0-0.3-0.2-0.4-0.5-0.4h-0.3L370.2,32.5L370.2,32.5z M370.2,30.9h0.3c0.3,0,0.6-0.1,0.6-0.4c0-0.2-0.2-0.4-0.6-0.4
			c-0.1,0-0.2,0-0.3,0V30.9z"/>
	</g>
</g>
</svg>
