<?xml version="1.0" encoding="utf-8"?>
<!-- Generator: Adobe Illustrator 20.1.0, SVG Export Plug-In . SVG Version: 6.00 Build 0)  -->
<svg version="1.1" id="Layer_1" xmlns="http://www.w3.org/2000/svg" xmlns:xlink="http://www.w3.org/1999/xlink" x="0px" y="0px"
	 viewBox="0 0 677 180.6" style="enable-background:new 0 0 677 180.6;" xml:space="preserve">
<style type="text/css">
	.st0{fill:#261F16;}
</style>
<path class="st0" d="M288.1,107.8c1.1,1.6,2.3,3.2,3.5,4.8c3.8,5,8.1,9.4,12.3,13.9c3.3,3.6,6.6,7.1,9.6,10.9
	c4.3,5.3,7.3,11.3,8.7,18c1.1,5,1.8,10.1,1.3,15.2c-0.2,2.9-1,5.8-3.2,7.9c-2.2,2.1-5.9,2.9-8.3,0.8c-1.5-1.3-3-2.6-4.4-4.1
	c-4.1-4.5-8.2-9.1-12.2-13.8c-4.4-5.1-8.6-10.2-13.4-14.8c-5.1-5-10.8-9.2-17.5-11.9c-1.6-0.6-3.2-1.2-4.8-1.8
	c-0.4-0.1-0.8-0.2-1.2-0.3c-3.1-0.6-5.1,0.8-5.4,4.1c-0.2,3.4-0.1,6.8-0.1,10.2c0,2.9-0.3,5.8-1.1,8.7c-1.4,5.2-4.6,8.9-9.6,10.8
	c-4.4,1.7-9,2.1-13.6,0.5c-4.3-1.5-6.8-4.8-6.8-9.4c0-1.8,0.1-3.5,0.3-5.3c0.3-4.4,0.6-8.8,1-13.1c0.3-3.5-0.4-6.9-1.6-10.2
	c-0.8-2.2-1.1-4.5-1.2-6.9c-0.2-6.5,0.7-12.8,1.8-19.2c0.9-4.7,1.7-9.3,2.6-14c1.3-7.1,1.9-14.2,1.2-21.3c-0.3-3.2-0.9-6.4-1.5-9.5
	c-0.8-4.9-1.9-9.7-1.7-14.6c0.1-3.6,0.8-7.1,3.2-10c1.3-1.6,2.9-2.9,4.7-3.9c3.6-1.9,7.4-3.1,11.4-3.9c4.5-1,8.9-1.2,13.5-1.3
	c6-0.1,12.1,0.3,18,1.3c6.8,1.1,13.5,2.1,20.3,3.4c3.9,0.7,7.9,1.3,11.4,3.2c0.9,0.5,1.9,1,2.7,1.6c1,0.7,1.8,1.7,2.2,2.9
	c0.9,3.5,1.7,7,2.5,10.6c0.8,3.8,1.4,7.7,2.1,11.6c0.3,1.7,0.3,3.5,1.6,4.9c0.2,0.2,0.2,0.8,0.2,1.2c-0.2,1.8-0.2,3.5-0.6,5.2
	c-0.9,3.8-2.1,7.5-3.1,11.3c-0.9,3.6-2.2,7.1-3.8,10.5c-1.5,3.2-3.6,5.9-6.1,8.3c-2.2,2.1-4.7,4-7.1,6c-0.7,0.6-1.4,0.8-2.3,0.8
	c-1.7-0.1-3.5,0-5.2,0C288.2,107.5,288.2,107.6,288.1,107.8z M287.1,70.3c0.1-2.4,0.1-4.7-0.7-6.9c-0.5-1.3-1.3-1.9-2.6-1.9
	c-2.1-0.1-4,0.7-5.7,1.6c-4.2,2.1-8.6,3.8-13,5.2c-2.1,0.6-4.1,1.5-6,2.5c-2.4,1.2-3.8,3.1-4.3,5.8c-0.4,2.3,0,4.4,0.5,6.6
	c0.5,2.2,1.1,4.4,1.7,6.6c0.8,2.8,2.4,4.8,5.4,5.5c4.2,1,8.1,0.3,11.1-2.7c3.7-3.5,7.2-7.2,10.4-11.1
	C286.3,78.3,287,74.3,287.1,70.3z M387.1,83.9c-0.3-0.6-0.6-1.1-0.8-1.7c-1.7-4.5-3.4-9.1-5.1-13.6c-1.7-4.5-3.2-9-4.4-13.7
	c-1.1-4.3-1.4-8.6-0.3-12.8c0.6-2.4-0.1-4.4-1.4-6.3c-2-3-4.9-5.1-8-7c-2.4-1.5-5-2.5-7.7-3.5c-4.1-1.5-8.3-2.3-12.7-2.1
	c-2.4,0.1-4.7,0.4-6.8,1.5c-3.3,1.6-5.6,3.9-6.5,7.5c-0.9,3.5-0.6,7,0.3,10.4c1.3,5,3,9.9,4.6,14.9c1.1,3.6,2,7.2,1.9,11
	c-0.3,8.8-0.5,17.7-0.5,26.5c-0.1,12.7-0.1,25.4,0.4,38.2c0.4,9.9,0.8,19.8,2.7,29.5c0.4,2.2,1.2,4.4,2.2,6.5
	c1.2,2.7,3.3,2.7,5.1,0.8c1.2-1.3,2.2-2.8,3-4.3c2.1-4.3,3.4-9,4.3-13.7c0.9-4.8,1.5-9.7,2-14.6c0.6-5.6,0.8-11.3,1.2-17
	c0.1-2.1,0.1-4.2,0.2-6.3c0.3-4.9,0.7-9.8,1-14.7c0.1-0.7,0.2-1.5,0.3-2.2c0.5,0.5,0.6,1,0.7,1.6c0.2,1.3,0.2,2.6,0.5,3.8
	c1.6,7.2,4.1,14.1,6.8,20.8c2.1,5.3,4,10.6,5.8,16c0.9,2.6,1.8,5.2,3.7,7.3c1.7,1.8,4,2.5,6.2,1.4c0.8-0.4,1.7-0.8,2.4-1.4
	c1.9-1.4,3.6-2.9,4.4-5.3c0.7-2.1,1.1-4.2,1-6.4c-0.3-5,0.9-9.7,2.9-14.3c2.1-4.9,4.1-9.8,6-14.8c2.1-5.6,4.8-10.8,7.2-16.2
	c1.1-2.6,2.1-5.2,3.1-7.8c0.4-1.2,0.8-2.4,1.2-3.6c0.2,0.1,0.3,0.2,0.4,0.3c0.7,3.2,1.3,6.4,1.9,9.6c0.6,3,1,6.1,1.5,9.2
	c0.7,4.5,1.5,8.9,2,13.4c0.6,4.5,1.1,9,1.5,13.5c0.6,5.8,1.2,11.5,1.6,17.3c0.5,5.8,0.9,11.6,1.3,17.4c0.3,3.8,0.4,7.6,0.8,11.4
	c0.2,2,0.6,3.9,1.2,5.8c0.5,1.6,1.9,1.8,3,0.4c0.9-1.2,1.8-2.5,2.4-3.8c1.4-3.2,2.7-6.3,3.8-9.6c2.2-6.1,4.3-12.1,6.2-18.3
	c0.8-2.7,1.3-5.6,1.5-8.5c0.3-5.6,0.3-11.1,0.5-16.7c0.1-3.1,0.1-6.1,0.4-9.1c0.3-4.3,0.7-8.5,1.1-12.8c0.2-2.3,0.5-4.5,0.8-6.8
	c1-7,1.4-14,0.8-21c-0.2-2.3-0.8-4.6-2.2-6.5c-0.5-0.7-1-1.5-1.4-2.2c-1.2-2.2-1.3-4.6-1.2-7c0.2-3,0.5-6,0.6-8.9
	c0.1-3.2-0.9-6-3-8.4c-3.4-4-7.6-6.8-12.3-8.8c-6-2.5-11.8-2.1-17.3,1.5c-5.8,3.8-9.3,9.2-11.5,15.7c-1.1,3.2-1.4,6.5-1.7,9.8
	c-0.4,4.9-1.3,9.6-2.8,14.3c-0.9,2.7-1.9,5.4-3,8.1c-0.9,2.2-2.2,4.4-3.3,6.6C387.5,84,387.3,84,387.1,83.9z M211,32.7
	c-6.4-0.6-12.8-0.2-19.2,0.2c-4.5,0.3-8.9,0-13.3-0.7c-3.6-0.6-6.6-2.4-9.5-4.4c-3.6-2.4-7.5-3.9-11.7-4.4c-7-0.7-13.7,0.5-19.9,3.7
	c-4.1,2.1-7.1,5.1-8.4,9.6c-0.3,1.1-0.6,2.1-0.8,3.2c-0.5,2.8-1,5.5-1.2,8.3c-0.3,4.5,1.3,8.5,3.4,12.4c2,3.6,3.4,7.3,4,11.4
	c0.2,1.4,0.2,2.8,0,4.2c-0.4,3.4-2.1,6.3-3.9,9.1c-1.7,2.5-3.4,5-5,7.7c-1.1,1.9-2,3.9-1.9,6.3c0.1,4-0.1,8,0,11.9
	c0.2,11.5,0.4,23,0.6,34.5c0.1,4.8,0.3,9.6,0.4,14.4c0.1,2.9,0.2,5.8,0.5,8.6c0.3,2.6,1.2,5,3.2,6.8c2.8,2.6,6.2,3,9.7,2.7
	c4.3-0.3,8.6-1.2,12.8-2.1c4.8-1,9.7-1.9,14.5-2.7c4.4-0.7,8.7-1.6,12.5-4.3c3-2.2,6.2-4.2,9.3-6.3c0.4-0.3,0.8-0.6,1-1
	c0.9-2,1.1-4.2,0.3-6.3c-0.7-2-2.4-3.2-4.2-4c-2.8-1.3-5.7-2-8.8-2.3c-5-0.6-10-1-15-1.4c-3.3-0.2-6.2-1.3-8.8-3.3
	c-1.9-1.4-2.5-3.2-1.8-5.4c1.2-3.6,2.5-7.2,3.8-10.8c1.3-4,4.1-6.7,7.8-8.6c6.6-3.4,13.3-6.4,20.5-8.3c1.4-0.4,2.7-0.6,4.1-0.6
	c0.7,0,1.4,0,2.1,0.1c1.3,0.1,2.4-0.3,3.4-1c3.9-2.8,5.9-6.7,6.4-11.4c0.2-1.8-0.3-3.6-1.2-5.2c-1.5-3-4.1-4.7-7.2-5.4
	c-2.7-0.6-5.5-0.9-8.3-1.3c-2.7-0.4-5.3-0.7-8-1.2c-3.7-0.7-6.6-3.1-9.7-5.1c-0.4-0.2-0.6-0.9-0.6-1.4c0-2,0-4,0.2-6
	c0.3-2.6,1.7-4.7,4-6.1c2.5-1.6,5.2-2.3,8.1-2.7c4-0.6,8-1.1,12-1.6c3.9-0.5,7.3-2.1,10-5c0.7-0.8,1.5-1.5,2.3-2.2
	c1.8-1.6,3.9-2.5,6.4-2.5c1.9,0,3.7-0.3,5.6-0.7c1.9-0.3,3.2-1.4,3.6-3.4c0.6-2.8,1.3-5.6,1.7-8.4c0.3-2.1,0-4.2,0-6.6
	C214.8,33.4,212.9,32.9,211,32.7z M594.6,127.3c0,3.6,0,7.2,0,10.7c0.1,4.6,0.6,9.2,1.4,13.8c0.5,3.1,1.1,6.1,1.5,9.2
	c0.5,4.2,0.8,8.4,0.8,12.6c0,0.6,0,1.2,0.1,1.8c0.3,2.2,1.4,2.9,3.5,2.3c3.4-1,5.9-2.9,7.5-6.1c1.1-2.3,1.9-4.8,2.5-7.3
	c0.9-3.6,1.7-7.2,2.7-10.7c1.1-3.9,2.5-7.7,3.6-11.6c1.6-6.2,3.1-12.5,4.6-18.7c1.5-6.1,3-12.3,4.5-18.4c1.3-5.4,2.9-10.7,4.9-15.9
	c1.3-3.3,2.9-6.4,4.3-9.6c1.1-2.3,1.9-4.7,1.6-7.3c-0.2-1.9-0.5-3.7-0.8-5.6c-0.7-3.3,0.2-6,2.7-8.3c1.5-1.4,3.3-2.3,5.2-2.9
	c3.6-1.1,7.4-1.9,11.1-2.6c5.2-1.1,10.4-1.5,15.3-3.8c1.7-0.8,3.2-1.8,4.3-3.4c1.5-2,1.9-6.9-0.8-9.1c-1.3-1-2.7-2.1-4.2-2.8
	c-4-1.9-8.3-3-12.7-3.9c-6.1-1.3-12.2-2-18.4-2.5c-6.7-0.5-13.3-1-20-1.8c-6.1-0.7-12.2-1.2-18.4-0.9c-4,0.2-7.8,0.9-11.3,3
	c-1.2,0.7-2.5,1.4-3.7,2c-2.6,1.2-5.3,2.2-8.3,1.5c-1.8-0.4-3.7-0.7-5.5-1.3c-3.2-0.9-6.3-0.9-9.5,0.2c-4.5,1.5-7.4,4.4-7.9,9.3
	c-0.1,1.3-0.1,2.5,0.7,3.7c2,2.7,4,5.5,5.9,8.3c0.5,0.8,1.2,1.3,2.1,1.5c2,0.4,4,0.8,6,1.2c3.2,0.6,6.5,1.1,9.7,1.8
	c2.9,0.6,5.8,1.5,8.7,2.1c0.5,0.1,1.2,0.2,1.6,0c0.8-0.5,1.3-0.2,1.9,0.1c1.8,1.1,3,2.5,3.5,4.6c0.5,2.3,1,4.7,1.4,7
	c0.7,3.7,1,7.4,0.7,11.2c-0.3,4.3-0.6,8.7-1.2,12.9c-1,6.5-1,13-1.5,19.5c-0.3,4.7-0.3,9.4-0.4,14.1
	C594.5,127.3,594.5,127.3,594.6,127.3z M46.7,176c0.2-0.3,0.5-0.7,0.6-1c1.7-3.9,3.5-7.7,5-11.6c1-2.6,2-5.3,2.6-8
	c1.1-4.1,2-8.3,2.8-12.5c0.8-4.1,1.5-8.3,2.1-12.5c0.5-3.6,0.9-7.2,1.3-10.8c0.4-3.3,1.1-6.6,2.4-9.7c1.9-4.3,3.8-8.7,5.9-12.9
	c2.9-5.7,5.4-11.4,6.6-17.7c1.2-6.4,3.1-12.6,3.7-19.1c0.2-1.7,0.8-3,2.2-4c2.3-1.6,4.8-2.8,7.5-3.2c4.1-0.6,8.3-0.9,12.4-1.5
	c1.7-0.2,3.4-0.5,5-0.9c3.9-0.9,7.5-2.7,10.9-4.7c1.7-1,3.2-2.2,4.2-3.9c0.9-1.7,0.8-3.2-0.6-4.5c-1.5-1.3-3.2-2.6-5-3.6
	c-3.2-1.8-6.5-3.3-9.9-4.8c-2.9-1.3-5.9-2.5-9.2-2.6c-2,0-4-0.2-6-0.3c-5.9-0.1-11.7-0.1-17.6-0.1c-9.5,0.1-19,0.1-28.5,0.3
	c-3.3,0.1-6.7,0.3-10,0.4c-2.7,0.1-5.4,0.5-8.1,0.5c-3.6,0-7.1-0.2-10.7-0.2c-3.3,0-6.6,0.4-9.6,1.6c-2.8,1.1-5,2.8-6,5.7
	c-1.2,3.4-1.3,6.7,1,9.7c1.2,1.6,2.8,2.8,4.5,3.8c5.4,2.9,11.3,4.3,17.4,5.3c4.3,0.7,8.7,1.2,13,1.9c0.6,0.1,1.3,0.4,1.6,0.8
	c1.2,1.5,2.1,3.2,2.7,5.1c0.9,3.1,1.4,6.3,1.2,9.6c-0.2,5.4-0.7,10.8-1,16.1c-0.3,8.1-0.6,16.2-0.9,24.3c-0.1,4.3-0.2,8.6-0.3,12.8
	c-0.3,8.4-0.6,16.8,0.2,25.1c0.6,7.1,1.7,14.2,3.8,21.1c0.6,2,1.4,3.9,2.1,5.9C46.4,176,46.5,176,46.7,176z M549.2,45
	c-0.6-3.7-2.1-7-4.5-9.9c-4.1-5-9.3-8.3-15.6-9.8c-4.6-1.1-9.2-1-13.3,1.9c-1.5,1-2.9,2.2-4.2,3.5c-4,3.8-7,8.3-8.9,13.5
	c-1.2,3.2-2.1,6.4-2.6,9.8c-0.8,4.7-1.1,9.5-1,14.2c0.1,6.6,0.8,13.2,1.7,19.8c0.9,6,1.7,12,2.6,17.9c0.4,3,0.9,6,1.1,9.1
	c0.4,5.6-0.2,11.1-1.3,16.6c-1,4.7-1.3,9.5-0.9,14.3c0.6,6,1.3,12,1.9,18c0.3,2.8,0.4,5.7,0,8.6c-0.2,1.3-0.3,2.6-0.4,3.8
	c-0.1,0.7,0.1,1.3,0.8,1.6c3.2,1.2,6.4,2,9.6,0.1c1.4-0.9,2.6-2,3.6-3.3c2.8-3.4,4-7.5,5-11.7c0.9-4.2,1.8-8.4,3.1-12.4
	c1-3.1,2.4-6.1,3.8-9.1c2.3-5.1,3.3-10.3,2.8-15.9c-0.3-3.6-0.1-7.2,0.6-10.8c0.4-1.8,0.7-3.7,0.9-5.5c0.4-5.6,0.7-11.2,1.2-16.8
	c0.4-4.7,1.6-9.3,4-13.5c0.9-1.5,2-2.6,3.8-2.8c1.7-0.2,2.8-1.1,3.5-2.6c0.4-0.7,0.8-1.3,1-2.1c0.7-2.4,1.5-4.7,2-7.1
	c0.5-2.9,0.8-5.8,1.2-8.7C550.2,52,549.8,48.5,549.2,45z M482.3,32.2c0.4-1.3,0.6-1.5,1.9-1.5c0.6,0,1.2,0,1.7-0.2
	c2.8-0.8,5.5-1.6,8.2-2.4c0.8-0.2,1.2-0.7,1.1-1.5c-0.1-0.9-0.3-1.8-0.5-2.7c-0.3-1.2-0.6-1.3-1.8-0.9c-1.5,0.5-3,1.1-4.5,1.5
	c-1.6,0.4-3.2,0.8-5,0.7c0.6-3.3,1.3-4.1,4.3-4.7c0.3-0.1,0.6-0.1,0.9-0.2c2.1-0.2,3.5-1.4,4.6-3c0.6-0.8,0.9-1.8,1.3-2.6
	c0.2-0.4,0.4-0.9,0.8-1.1c2.9-1.3,5.6-3,8.7-3.6c1.5-0.3,2.6-1.3,3.4-2.5c0.7-1.2,1.4-2.3,2.1-3.5c0.3-0.5,0.4-1.1,0.5-1.6
	C508,0.9,506.4,1.5,505,3c-0.2,0.2-0.4,0.3-0.5,0.5c-1.6,1.8-3.5,3.3-5.7,4.3c-1.5,0.7-3,1.5-4.8,1.2c-6.5-1.1-13-0.8-19.5-0.5
	c-0.5,0-1,0.1-1.6,0c-2-0.2-3.9-0.6-5.9,0.2c-0.2-0.3-0.4-0.5-0.5-0.8c-0.8-1.2-1.2-1.3-2.5-0.9c-1.2,0.4-1.7,0.3-2.4-0.7
	c-0.7-1-1.2-2-1.8-3c-0.6-0.9-1.3-1.8-2.2-2.5c-0.6-0.5-1.5-1.2-2.4-0.6c-0.8,0.6-1.1,1.7-0.9,2.7c0.1,0.5,0.3,1.1,0.5,1.5
	c0.5,0.8,1.1,1.6,1.7,2.2c1.7,1.6,3.4,3.2,5.2,4.7c0.7,0.7,1.4,1.3,0.9,2.4c-0.1,0.3,0.1,0.9,0.3,1.3c0.8,1.1,1.6,2.1,2.4,3.2
	c0.6,0.8,1.3,1.5,1.1,2.7c-0.3,1.6-0.5,3.2-0.8,4.9c-0.8,0-1.5,0.1-2.2,0c-1.9-0.5-3.8-1.1-5.7-1.6c-1.5-0.5-3-1.2-4.7-0.7
	c-0.5,1.7-0.4,3.2,1.3,4.2c0.3,0.2,0.5,0.5,0.8,0.7c1,1.2,2.2,1.7,3.7,1.6c1.3,0,2.6-0.1,3.9-0.1c1.1,0,2.2,0,3.3,0.1
	c1.5,0.2,1.9,0.8,1.7,2.2c-0.1,0.7-0.1,1.4-0.3,2.1c-0.4,1.6-0.8,1.8-2.1,1.7c-2-0.2-4.1-0.3-6.1-0.2c-1.2,0-2.3,0.3-3.4,0.6
	c-1.2,0.4-1.7,1.2-1.6,2.4c0.1,1.2,0.4,1.7,1.8,1.9c0.9,0.1,2,0.2,2.9,0c3.3-0.7,6.5-0.8,9.8-0.3c1.5,0.2,1.7,0.6,1,1.9
	c-0.7,1.3-1.1,2.6-1.3,4c-0.1,0.4-0.1,0.8-0.3,1.2c-0.5,0.8-0.4,1.5-0.3,2.4c0.2,1.1,0.5,2.1,0.1,3.4c-0.8,0.1-1.6,0.3-2.4,0.2
	c-1.7-0.2-3.3,0.4-4.7,1.3c-1.4,0.9-2.8,1.9-4.1,2.9c-1.5,1.2-2.4,2.9-2.8,4.7c-0.2,0.9,0,1.9,0.2,2.7c0.4,1.2,1.5,1.5,2.5,0.8
	c0.5-0.4,1-0.9,1.3-1.4c0.5-0.8,0.8-1.7,1.2-2.5c0.3-0.6,0.6-1.3,1.1-1.7c2-1.7,4.5-1.7,6.9-1.9c0.1,0.5,0.1,0.7,0.1,0.9
	c0.3,1.6,0.7,1.8,2.3,2.1c1.7,0.3,3.4,0.3,5.1-0.1c1.6-0.4,3.2-1.2,4-2.7c0.5-1,1.1-1.1,1.9-1.1c1.2,0,2.3,0.6,3.1,1.4
	c0.5,0.5,0.9,1,1.4,1.5c0.8,0.8,1.9,1.1,2.5,0.7c0.6-0.3,0.9-1.7,0.7-2.6c-0.1-0.3-0.2-0.6-0.4-0.8c-2-2.6-4.3-4.6-7.9-4.5
	c-0.6,0-1.2-0.1-1.9-0.1c-0.1-1.8,0.1-2.3,1.2-4.8c1.2-2.6,2.3-5.3,1.9-8.2c0-0.1,0.1-0.2,0.2-0.4c1.5-0.3,3-0.1,4.4,0.3
	c0.5,0.2,1,0.4,1.5,0.4c1.1,0.1,1.3-0.1,1.6-1.1c0.2-0.7,0.3-1.4,0.4-2.1c0.2-1.1-0.1-1.5-1.2-1.6c-0.7-0.1-1.4,0-2.1-0.1
	c-1.5-0.1-3-0.3-4.6-0.4C481.8,34,482,33.1,482.3,32.2z"/>
</svg>
