<?xml version="1.0" encoding="utf-8"?>
<!-- Generator: Adobe Illustrator 20.1.0, SVG Export Plug-In . SVG Version: 6.00 Build 0)  -->
<svg version="1.1" id="Layer_1" xmlns="http://www.w3.org/2000/svg" xmlns:xlink="http://www.w3.org/1999/xlink" x="0px" y="0px"
	 viewBox="0 0 415.6 88.1" style="enable-background:new 0 0 415.6 88.1;" xml:space="preserve">
<style type="text/css">
	.st0{fill:#261F16;}
</style>
<path class="st0" d="M41.2,88.1c-0.7,0-1.3-0.4-1.6-0.9L0.3,19c-0.3-0.6-0.3-1.3,0-1.9L9.6,1c0.3-0.6,1-1,1.6-1h78.6
	c0.7,0,1.3,0.4,1.6,1l9.3,16.2c0.3,0.6,0.3,1.3,0,1.9L61.6,87.1c-0.3,0.6-1,0.9-1.6,0.9L41.2,88.1L41.2,88.1z M79.7,18.6
	c-0.2-0.3-0.5-0.5-0.9-0.5H22.3c-0.4,0-0.7,0.2-0.9,0.5c-0.2,0.3-0.2,0.7,0,1l7.9,13.7c0.3,0.6,1,1,1.6,1h10.5c0.6,0,1,0.5,1,1v29.1
	c0,0.6,0.5,1,1,1h14.1c0.6,0,1-0.5,1-1V35.2c0-0.6,0.5-1,1-1h10.5c0.7,0,1.3-0.4,1.6-0.9l7.9-13.7C79.9,19.3,79.9,18.9,79.7,18.6z"
	/>
<g>
	<path class="st0" d="M415.6,41.7c0-13.3-9.9-24.4-25-24.4c-15.1,0-25,11.1-25,24.4s9.9,24.4,25,24.4
		C405.7,66.1,415.6,55,415.6,41.7L415.6,41.7z M404,41.7c0,8.2-5.7,14.1-13.4,14.1c-7.7,0-13.4-5.9-13.4-14.1s5.7-14.1,13.4-14.1
		C398.3,27.6,404,33.5,404,41.7z"/>
</g>
<g>
	<path class="st0" d="M216.9,41.7c0-13.3-9.9-24.4-25-24.4c-15.1,0-25,11.1-25,24.4s9.9,24.4,25,24.4C207,66.1,216.9,55,216.9,41.7
		L216.9,41.7z M205.3,41.7c0,8.2-5.7,14.1-13.4,14.1c-7.7,0-13.4-5.9-13.4-14.1s5.7-14.1,13.4-14.1
		C199.6,27.6,205.3,33.5,205.3,41.7z"/>
</g>
<path class="st0" d="M313.9,18.1h-8.3c-0.6,0-1.1,0.5-1.1,1.1v25.5c0,0.3-0.3,0.6-0.6,0.6c-0.2,0-0.3-0.1-0.4-0.2l-20.8-26.3l0,0
	c-0.3-0.4-0.8-0.6-1.3-0.6h-7.4c-0.6,0-1.1,0.5-1.1,1.1v45.1c0,0.6,0.5,1.1,1.1,1.1h8.3c0.6,0,1.1-0.5,1.1-1.1V38.8
	c0-0.3,0.3-0.6,0.6-0.6c0.2,0,0.3,0.1,0.4,0.2l0,0l20.8,26.3c0.3,0.4,0.8,0.6,1.3,0.6h7.4c0.6,0,1.1-0.5,1.1-1.1V19.1
	C315,18.6,314.5,18.1,313.9,18.1z"/>
<path class="st0" d="M167.7,18.2c-0.1-0.1-0.3-0.1-0.4-0.1h-43.5c-0.1,0-0.3,0-0.4,0.1c-0.4,0.2-0.6,0.8-0.3,1.2c0,0,0,0,0,0
	l4.7,8.2c0.3,0.5,0.8,0.8,1.3,0.8h0.1h9.9c0.5,0,0.9,0.4,0.9,0.9v35c0,0.6,0.5,1.1,1.1,1.1h9c0.6,0,1.1-0.5,1.1-1.1v-35
	c0-0.5,0.4-0.9,0.9-0.9c0,0,10,0,10,0c0.5,0,1-0.3,1.3-0.8l4.7-8.2C168.3,19,168.1,18.4,167.7,18.2z"/>
<path class="st0" d="M255.8,50.3L255.8,50.3C255.7,50.2,255.7,50.2,255.8,50.3c-0.1-0.2-0.1-0.3-0.1-0.4c0-0.3,0.2-0.6,0.5-0.7
	c0,0,0.1,0,0.1,0c0,0,0,0,0,0c5.2-1.8,8.7-7.3,8.7-14.1c0-2.4-0.4-4.6-1.1-6.6c-2.3-6.1-8.2-10.3-18.3-10.3h-20.1
	c-0.6,0-1.1,0.5-1.1,1.1v9.3v35.9c0,0.6,0.5,1.1,1.1,1.1h9.1c0.6,0,1.1-0.5,1.1-1.1v-35c0-0.5,0.4-0.9,0.9-0.9h8.5
	c5.5,0,8.5,3,8.5,7.3c0,4.2-2.9,7.7-8.5,7.7h-4.7c-0.4,0-0.8,0.3-0.8,0.7c0,0.1,0,0.3,0.1,0.4c0,0,0,0,0,0l11.6,20.1
	c0.3,0.5,0.8,0.8,1.4,0.8h10.6c0.1,0,0.3,0,0.4-0.1c0.4-0.2,0.5-0.7,0.3-1.1L255.8,50.3z"/>
<path class="st0" d="M362.5,18.2c-0.1-0.1-0.3-0.1-0.4-0.1h-36.5c-0.6,0-1.1,0.5-1.1,1.1v45.1c0,0.6,0.5,1.1,1.1,1.1h33.9
	c0.6,0,1.1-0.5,1.1-1.1v-8.2c0-0.6-0.5-1.1-1.1-1.1h-23.1c-0.5,0-0.9-0.4-0.9-0.9v-6.7c0-0.5,0.4-0.9,0.9-0.9h20.4
	c0.6,0,1.1-0.5,1.1-1.1v-7.8c0-0.6-0.5-1.1-1.1-1.1h-20.4c-0.5,0-0.9-0.4-0.9-0.9v-6.5c0-0.5,0.4-0.9,0.9-0.9h20.5
	c0.5,0,1-0.3,1.3-0.8l4.7-8.2C363.1,19,362.9,18.4,362.5,18.2z"/>
</svg>
